<?xml version="1.0" encoding="utf-8"?>
<!-- Generator: Adobe Illustrator 21.0.2, SVG Export Plug-In . SVG Version: 6.00 Build 0)  -->
<svg version="1.1" id="Isolation_Mode" xmlns="http://www.w3.org/2000/svg" xmlns:xlink="http://www.w3.org/1999/xlink" x="0px"
	 y="0px" viewBox="0 0 40 40" style="enable-background:new 0 0 40 40;" xml:space="preserve">
<path d="M24.7,15.3c-0.5-0.5-1.3-0.5-1.8,0L20,18.2l-2.9-2.9c-0.5-0.5-1.3-0.5-1.8,0c-0.5,0.5-0.5,1.3,0,1.8c0,0,0,0,0,0l2.9,2.9
	l-2.9,2.9c-0.5,0.5-0.5,1.3,0,1.8c0.5,0.5,1.3,0.5,1.8,0c0,0,0,0,0,0l2.9-2.9l2.9,2.9c0.5,0.5,1.3,0.5,1.8,0c0.5-0.5,0.5-1.3,0-1.8
	L21.8,20l2.9-2.9C25.2,16.6,25.2,15.8,24.7,15.3z"/>
<path d="M20,37.9c-9.9,0-17.9-8-17.9-17.9S10.1,2.1,20,2.1c9.9,0,17.9,8,17.9,17.9S29.9,37.9,20,37.9z M20,3.8C11,3.8,3.8,11,3.8,20
	S11,36.2,20,36.2c9,0,16.2-7.3,16.2-16.2S29,3.8,20,3.8z"/>
</svg>
