<?xml version="1.0" encoding="utf-8"?>
<!-- Generator: Adobe Illustrator 21.0.2, SVG Export Plug-In . SVG Version: 6.00 Build 0)  -->
<svg version="1.1" id="Layer_1" xmlns="http://www.w3.org/2000/svg" xmlns:xlink="http://www.w3.org/1999/xlink" x="0px" y="0px"
	 viewBox="-589 339 70 96" style="enable-background:new -589 339 70 96;" xml:space="preserve">
<path d="M-525,374.9c0-16-13-29.5-29-29.5s-29,13.7-29,29.8c0,6.3,2,12.5,5.4,17.5l0,0l11.8,16.4l10.3,14.7c0.8,1.1,2.4,1.1,3.1,0
	l10.3-14.6l11.8-16.5l0,0C-527,387.7-525,381.2-525,374.9z M-551.8,395.5c-13.6,1.4-25-10-23.7-23.7c1-10.1,9.2-18.3,19.3-19.3
	c13.6-1.4,25,10,23.7,23.7C-533.5,386.3-541.7,394.5-551.8,395.5z"/>
</svg>
