<?xml version="1.0" encoding="utf-8"?>
<!-- Generator: Adobe Illustrator 21.0.2, SVG Export Plug-In . SVG Version: 6.00 Build 0)  -->
<svg version="1.1" id="Layer_1" xmlns="http://www.w3.org/2000/svg" xmlns:xlink="http://www.w3.org/1999/xlink" x="0px" y="0px"
	 viewBox="0 0 822 146" style="enable-background:new 0 0 822 146;" xml:space="preserve">
<style type="text/css">
	.st0{fill:#FFFFFF;}
</style>
<g>
	<polygon class="st0" points="178,48.2 197.1,48.2 197.1,99.2 201.9,99.2 201.9,48.2 221,48.2 221,43.7 178,43.7 	"/>
	<path class="st0" d="M266.4,74.1c2-0.8,3.7-1.9,5.2-3.2c1.5-1.3,2.6-2.9,3.4-4.8c0.8-1.8,1.2-4,1.2-6.3v-0.2c0-2-0.4-3.9-1.1-5.7
		c-0.7-1.8-1.8-3.4-3.1-4.7c-1.7-1.7-3.9-3.1-6.5-4c-2.6-1-5.7-1.5-9.1-1.5H233v55.4h4.8V76.5h17.3l17.4,22.7h6.1l-18.1-23.5
		C262.6,75.4,264.6,74.9,266.4,74.1z M237.8,72.1V48.2h18.3c4.9,0,8.7,1.1,11.4,3.1c2.6,2.1,4,4.9,4,8.5v0.2c0,1.9-0.4,3.6-1.2,5.1
		c-0.8,1.5-1.9,2.8-3.2,3.8c-1.4,1-3,1.8-4.9,2.4c-1.9,0.6-4,0.8-6.3,0.8H237.8z"/>
	<path class="st0" d="M311.8,43.4L286,99.2h5l7-15.3h31.8l7,15.3h5.3l-25.8-55.8H311.8z M300.1,79.4l13.9-30.4l13.8,30.4H300.1z"/>
	<path class="st0" d="M392.3,51.7c-2.6-2.5-5.7-4.4-9.3-5.8c-3.6-1.4-7.6-2.1-11.9-2.1h-18.6v55.4h18.6c4.3,0,8.3-0.7,11.9-2.1
		c3.6-1.4,6.7-3.4,9.3-5.9c2.6-2.5,4.6-5.4,6.1-8.8c1.4-3.4,2.1-7,2.1-10.9v-0.2c0-3.9-0.7-7.5-2.1-10.9
		C396.9,57.1,394.9,54.1,392.3,51.7z M395.5,71.6c0,3.2-0.6,6.3-1.7,9.1c-1.1,2.8-2.8,5.3-4.9,7.3c-2.1,2.1-4.7,3.7-7.7,4.9
		c-3,1.2-6.4,1.8-10.2,1.8h-13.8V48.2h13.8c3.7,0,7.2,0.6,10.2,1.9c3,1.2,5.6,2.9,7.7,5c2.1,2.1,3.7,4.6,4.9,7.4
		c1.1,2.8,1.7,5.9,1.7,9V71.6z"/>
	<polygon class="st0" points="415.7,73.5 447,73.5 447,69.1 415.7,69.1 415.7,48.2 450.5,48.2 450.5,43.7 410.9,43.7 410.9,99.2 
		450.9,99.2 450.9,94.8 415.7,94.8 	"/>
	<polygon class="st0" points="506.2,90.6 469.2,43.9 469.1,43.7 464.7,43.7 464.7,99.2 469.3,99.2 469.3,51.3 507.2,99 507.3,99.2 
		510.9,99.2 510.9,43.7 506.2,43.7 	"/>
	<path class="st0" d="M576,60.5L576,60.5c-1.3-3.4-3.2-6.5-5.6-9.1c-2.4-2.6-5.4-4.7-8.8-6.3c-3.4-1.6-7.3-2.3-11.4-2.3
		c-4.2,0-8.1,0.8-11.5,2.3c-3.4,1.5-6.4,3.7-8.8,6.3c-2.4,2.6-4.3,5.7-5.7,9.1c-1.3,3.4-2,7.1-2,10.9v0.2c0,3.8,0.7,7.4,2,10.8
		c1.3,3.4,3.2,6.5,5.6,9.1c2.4,2.6,5.4,4.7,8.8,6.3c3.4,1.6,7.2,2.3,11.4,2.3c4.1,0,8-0.8,11.4-2.3c3.4-1.6,6.4-3.7,8.8-6.3
		c2.4-2.6,4.3-5.7,5.7-9.1c1.3-3.4,2-7,2-10.8c0.1-0.1,0.1-0.2,0-0.4C578,67.5,577.3,63.9,576,60.5z M573,71.6
		c0,3.3-0.6,6.5-1.7,9.4c-1.1,2.9-2.7,5.5-4.7,7.7c-2,2.2-4.4,3.9-7.2,5.1c-2.8,1.2-5.9,1.9-9.2,1.9c-3.3,0-6.4-0.6-9.2-1.9
		c-2.8-1.3-5.3-3-7.3-5.2c-2-2.2-3.6-4.8-4.8-7.7c-1.1-2.9-1.7-6.1-1.7-9.4v-0.2c0-3.3,0.6-6.5,1.7-9.4c1.1-2.9,2.7-5.5,4.7-7.7
		c2-2.2,4.4-3.9,7.2-5.1c2.8-1.2,5.9-1.9,9.2-1.9s6.4,0.6,9.2,1.9c2.8,1.3,5.2,3,7.3,5.2c2,2.2,3.6,4.8,4.8,7.7
		c1.1,2.9,1.7,6.1,1.7,9.4V71.6z"/>
	<polygon class="st0" points="614.6,75.8 592.9,43.9 592.8,43.7 588.4,43.7 588.4,99.2 593.1,99.2 593.1,52.5 614,83 614.1,83.2 
		614.8,83.2 635.9,52.5 635.9,99.2 640.7,99.2 640.7,43.7 636.3,43.7 	"/>
	<rect x="655.6" y="43.7" class="st0" width="4.8" height="55.4"/>
	<rect x="673.8" y="43.7" class="st0" width="4.8" height="55.4"/>
	<polygon class="st0" points="690.2,48.2 709.2,48.2 709.2,99.2 714,99.2 714,48.2 747.3,48.2 747.3,99.2 752.2,99.2 752.2,48.2 
		771.2,48.2 771.2,43.7 690.2,43.7 	"/>
	<rect x="782.8" y="43.7" class="st0" width="4.8" height="55.4"/>
	<path class="st0" d="M127.4,9.2c-7.1,0-12.9,5.3-13.8,12.1H92.9C92,14.5,86.2,9.2,79.1,9.2s-12.9,5.3-13.8,12.1H43
		c-0.9-6.8-6.7-12.1-13.8-12.1c-7.7,0-13.9,6.2-13.9,13.9S21.6,37,29.3,37c7.1,0,12.9-5.3,13.8-12.1h22.3
		c0.8,6.2,5.7,11.1,11.9,11.9v54.9c-6.8,0.9-12.1,6.7-12.1,13.8c0,7.7,6.2,13.9,13.9,13.9c7.7,0,13.9-6.2,13.9-13.9
		c0-7.1-5.3-12.9-12.1-13.8V36.9c6.2-0.8,11.1-5.7,11.9-11.9h20.8c0.9,6.8,6.7,12.1,13.8,12.1c7.7,0,13.9-6.2,13.9-13.9
		S135,9.2,127.4,9.2z"/>
</g>
<g>
	<path class="st0" d="M674.8,110.6h14c3.5,0,6.1,0.9,7.9,2.7c1.4,1.4,2.1,3.1,2.1,5.1v0.1c0,0.9-0.1,1.6-0.3,2.3
		c-0.2,0.7-0.5,1.3-0.9,1.8c-0.4,0.5-0.8,1-1.2,1.4c-0.5,0.4-1,0.7-1.5,1c1.7,0.7,3.1,1.6,4.1,2.7c1,1.1,1.5,2.7,1.5,4.7v0.1
		c0,1.4-0.3,2.6-0.8,3.6c-0.5,1-1.3,1.9-2.3,2.6c-1,0.7-2.2,1.2-3.6,1.6c-1.4,0.3-2.9,0.5-4.6,0.5h-14.3V110.6z M687.4,122.8
		c1.5,0,2.6-0.3,3.5-0.8c0.9-0.5,1.3-1.3,1.3-2.4v-0.1c0-1-0.4-1.8-1.1-2.3c-0.7-0.5-1.8-0.8-3.2-0.8h-6.5v6.4H687.4z M689.1,135
		c1.5,0,2.6-0.3,3.4-0.8c0.8-0.5,1.2-1.4,1.2-2.5v-0.1c0-1-0.4-1.8-1.2-2.4c-0.8-0.6-2-0.9-3.7-0.9h-7.7v6.6H689.1z"/>
	<path class="st0" d="M708.8,110.6h22.7v5.9h-16.2v6.1h14.2v5.9h-14.2v6.3h16.4v5.9h-22.9V110.6z"/>
	<path class="st0" d="M747.6,116.7h-9.2v-6.1h25v6.1h-9.2v24h-6.6V116.7z"/>
	<path class="st0" d="M776.2,110.4h6.1l12.9,30.4h-6.9l-2.8-6.8h-12.8l-2.8,6.8h-6.8L776.2,110.4z M783.2,128.1l-4-9.8l-4,9.8H783.2
		z"/>
</g>
</svg>
