<?xml version="1.0" encoding="utf-8"?>
<!-- Generator: Adobe Illustrator 21.0.2, SVG Export Plug-In . SVG Version: 6.00 Build 0)  -->
<svg version="1.1" id="Layer_1" xmlns="http://www.w3.org/2000/svg" xmlns:xlink="http://www.w3.org/1999/xlink" x="0px" y="0px"
	 viewBox="0 0 694.6 102.5" style="enable-background:new 0 0 694.6 102.5;" xml:space="preserve">
<style type="text/css">
	.st0{fill:#FFFFFF;}
</style>
<g>
	<polygon class="st0" points="151.6,34 169.3,34 169.3,81.4 173.1,81.4 173.1,34 190.8,34 190.8,30.6 151.6,30.6 	"/>
	<path class="st0" d="M231.4,58.2c1.8-0.8,3.4-1.7,4.7-2.9c1.3-1.2,2.4-2.7,3.1-4.3c0.8-1.7,1.1-3.6,1.1-5.7V45c0-1.8-0.3-3.6-1-5.2
		c-0.7-1.6-1.6-3-2.8-4.2c-1.6-1.5-3.5-2.8-6-3.7c-2.4-0.9-5.2-1.3-8.4-1.3h-21.4v50.9h3.8V60.4h16.5h0.1l16.2,21.1h4.8l-16.8-21.7
		C227.6,59.4,229.6,58.9,231.4,58.2z M204.6,57V34H222c4.6,0,8.2,1,10.8,3c2.5,2,3.8,4.7,3.8,8.2v0.1c0,1.8-0.4,3.5-1.1,4.9
		c-0.8,1.4-1.8,2.6-3.1,3.6c-1.3,1-2.9,1.8-4.7,2.3c-1.8,0.5-3.8,0.8-5.9,0.8H204.6z"/>
	<path class="st0" d="M271.2,30.2l-23.7,51.2h3.9l6.5-14.2h30l6.5,14.2h4.1l-23.7-51.2H271.2z M259.6,63.8L273,34.4l13.4,29.4H259.6
		z"/>
	<path class="st0" d="M342.8,37.9c-2.4-2.3-5.3-4.1-8.6-5.3c-3.3-1.3-7-1.9-10.9-1.9h-16.9v50.9h16.9c4,0,7.6-0.7,10.9-2
		c3.3-1.3,6.2-3.1,8.6-5.4c2.4-2.3,4.2-5,5.6-8.1c1.3-3.1,2-6.4,2-10v-0.1c0-3.6-0.7-6.9-2-10C347.1,42.8,345.2,40.1,342.8,37.9z
		 M346.4,56.2c0,3.1-0.5,5.9-1.6,8.6c-1.1,2.6-2.6,5-4.6,6.9c-2,2-4.4,3.5-7.3,4.7c-2.9,1.1-6.1,1.7-9.6,1.7h-13.2V34h13.2
		c3.5,0,6.7,0.6,9.6,1.7c2.9,1.2,5.3,2.7,7.3,4.7c2,2,3.5,4.3,4.6,7c1.1,2.7,1.6,5.5,1.6,8.5V56.2z"/>
	<polygon class="st0" points="362.6,57.5 391.8,57.5 391.8,54.1 362.6,54.1 362.6,34 395,34 395,30.6 358.9,30.6 358.9,81.4 
		395.4,81.4 395.4,78 362.6,78 	"/>
	<polygon class="st0" points="444.7,74.8 409.6,30.6 406.1,30.6 406.1,81.4 409.7,81.4 409.7,36.3 445.5,81.4 448.4,81.4 
		448.4,30.6 444.7,30.6 	"/>
	<path class="st0" d="M506.2,45.9c-1.2-3.1-2.9-5.9-5.2-8.3c-2.2-2.4-4.9-4.3-8.1-5.7c-3.1-1.4-6.6-2.1-10.5-2.1
		c-3.9,0-7.4,0.7-10.5,2.1c-3.1,1.4-5.8,3.4-8.1,5.8c-2.2,2.4-4,5.2-5.2,8.4c-1.2,3.2-1.9,6.5-1.9,10v0.1c0,3.5,0.6,6.8,1.8,10
		c1.2,3.1,2.9,5.9,5.2,8.3c2.2,2.4,4.9,4.3,8,5.7c3.1,1.4,6.6,2.1,10.5,2.1c3.8,0,7.3-0.7,10.5-2.1c3.2-1.4,5.9-3.4,8.1-5.8
		c2.2-2.4,4-5.2,5.2-8.4c1.2-3.2,1.9-6.5,1.9-10c0,0,0-0.1,0-0.1C508,52.4,507.4,49.1,506.2,45.9z M504.1,56.2
		c0,3.1-0.5,6.1-1.6,8.9c-1.1,2.8-2.6,5.2-4.5,7.2c-1.9,2.1-4.2,3.7-6.8,4.9c-2.6,1.2-5.5,1.8-8.7,1.8c-3.1,0-6.1-0.6-8.7-1.8
		c-2.7-1.2-5-2.8-6.9-4.9c-1.9-2.1-3.4-4.5-4.5-7.3c-1.1-2.8-1.6-5.8-1.6-8.9v-0.1c0-3.1,0.5-6.1,1.6-8.9c1.1-2.8,2.6-5.2,4.5-7.2
		c1.9-2.1,4.2-3.7,6.8-4.9c2.6-1.2,5.5-1.8,8.7-1.8s6.1,0.6,8.7,1.8c2.7,1.2,5,2.8,6.9,4.9c1.9,2.1,3.4,4.5,4.5,7.3
		c1.1,2.8,1.6,5.8,1.6,8.9V56.2z"/>
	<polygon class="st0" points="540.5,60.7 520.1,30.6 516.5,30.6 516.5,81.4 520.1,81.4 520.1,37.3 540.3,66.5 540.5,66.5 
		560.7,37.3 560.7,81.4 564.4,81.4 564.4,30.6 560.9,30.6 	"/>
	<rect x="577.2" y="30.6" class="st0" width="3.8" height="50.9"/>
	<rect x="591.3" y="30.6" class="st0" width="3.8" height="50.9"/>
	<polygon class="st0" points="641,30.6 605.6,30.6 605.6,34 623.3,34 623.3,81.4 627.1,81.4 627.1,34 641,34 644.8,34 658.7,34 
		658.7,81.4 662.5,81.4 662.5,34 680.2,34 680.2,30.6 644.8,30.6 	"/>
	<rect x="690.8" y="30.6" class="st0" width="3.8" height="50.9"/>
</g>
<g>
	<path class="st0" d="M104.1,0c-6.6,0-12,4.9-12.8,11.2H72C71.2,4.9,65.8,0,59.2,0c-6.6,0-12,4.9-12.8,11.2H25.7
		C24.9,4.9,19.5,0,12.9,0C5.8,0,0,5.8,0,12.9C0,20,5.8,25.8,12.9,25.8c6.6,0,12-4.9,12.8-11.2h20.8c0.8,5.8,5.3,10.3,11.1,11.1v51.1
		c-6.3,0.8-11.2,6.2-11.2,12.8c0,7.1,5.8,12.9,12.9,12.9c7.1,0,12.9-5.8,12.9-12.9c0-6.6-4.9-12-11.2-12.8V25.7
		c5.8-0.8,10.3-5.3,11.1-11.1h19.3c0.8,6.3,6.2,11.2,12.8,11.2c7.1,0,12.9-5.8,12.9-12.9C117,5.8,111.3,0,104.1,0"/>
</g>
</svg>
